<svg xmlns="http://www.w3.org/2000/svg" viewBox="0 0 360 360" role="img" aria-labelledby="title desc">
  <title id="title">Anime archive sticker</title>
  <desc id="desc">A cute anime-style girl sticker holding a notebook for the growth archive website.</desc>
  <defs>
    <linearGradient id="bg" x1="0" x2="1" y1="0" y2="1">
      <stop offset="0" stop-color="#fff7fb"/>
      <stop offset="1" stop-color="#e9fbff"/>
    </linearGradient>
    <linearGradient id="hair" x1="0" x2="1" y1="0" y2="1">
      <stop offset="0" stop-color="#384a5c"/>
      <stop offset="1" stop-color="#6b8ba2"/>
    </linearGradient>
    <linearGradient id="dress" x1="0" x2="1" y1="0" y2="1">
      <stop offset="0" stop-color="#69c6cc"/>
      <stop offset="1" stop-color="#d987aa"/>
    </linearGradient>
  </defs>
  <path d="M180 18c83 0 150 59 150 132 0 54-37 101-90 121-13 5-17 17-12 31l8 23-34-18c-9-5-18-6-28-6C94 301 30 242 30 169S97 18 180 18Z" fill="url(#bg)" stroke="#6fb6c4" stroke-width="7"/>
  <path d="M99 155c6-70 44-112 83-112 45 0 84 46 89 114 4 61-32 111-87 111s-90-51-85-113Z" fill="url(#hair)"/>
  <path d="M119 151c-18 9-24 41-10 60 13 18 35 16 42-4M249 151c18 9 24 41 10 60-13 18-35 16-42-4" fill="#f6cfc7"/>
  <path d="M129 135c12-51 34-78 55-78 36 0 62 40 62 85 0 56-28 98-62 98s-65-46-55-105Z" fill="#ffd8cf"/>
  <path d="M119 146c35-6 68-27 91-59 14 30 35 49 56 58-9-60-41-88-78-88-39 0-61 32-69 89Z" fill="url(#hair)"/>
  <path d="M154 164c8-7 19-7 28 0M206 164c8-7 19-7 28 0" stroke="#22313d" stroke-width="6" stroke-linecap="round"/>
  <path d="M177 205c13 9 27 9 40 0" stroke="#bc7183" stroke-width="5" stroke-linecap="round"/>
  <path d="M103 303c9-62 37-95 81-95s72 33 81 95H103Z" fill="url(#dress)"/>
  <path d="M151 213l33 47 34-47" fill="#fff" opacity=".88"/>
  <rect x="196" y="223" width="76" height="58" rx="8" fill="#fffdf6" stroke="#d7aa43" stroke-width="5" transform="rotate(-8 234 252)"/>
  <path d="M213 243h38M214 260h29" stroke="#6f8792" stroke-width="5" stroke-linecap="round" transform="rotate(-8 234 252)"/>
  <path d="M75 89l12 23 26 5-19 18 4 25-23-12-23 12 4-25-19-18 26-5 12-23ZM287 77l8 15 17 3-12 12 2 17-15-8-15 8 3-17-13-12 17-3 8-15Z" fill="#f0c869"/>
</svg>
